<svg width="55" height="15" viewBox="0 0 55 15" fill="none" xmlns="http://www.w3.org/2000/svg">
<path d="M7.98 15H3.528C2.52 14.076 1.785 12.977 1.323 11.703C0.861 10.429 0.63 9.099 0.63 7.713C0.63 6.313 0.91 4.934 1.47 3.576C2.03 2.218 2.814 1.126 3.822 0.299999H8.925V2.82H5.019C4.655 3.24 4.34 3.905 4.074 4.815C3.808 5.711 3.675 6.67 3.675 7.692C3.675 8.7 3.794 9.666 4.032 10.59C4.284 11.5 4.592 12.158 4.956 12.564H6.972V6.852H9.744V10.38C9.744 12.312 9.156 13.852 7.98 15ZM11.301 15V4.269H13.296L13.821 5.403C14.381 4.647 15.088 4.269 15.942 4.269H16.761V7.083H14.094V15H11.301ZM22.4269 6.474H20.8519C20.6419 6.726 20.4669 7.076 20.3269 7.524C20.2009 7.972 20.1379 8.406 20.1379 8.826H23.1409C23.1689 8.406 23.1129 7.972 22.9729 7.524C22.8329 7.062 22.6509 6.712 22.4269 6.474ZM25.2829 12.795V15H19.9489C18.9689 14.342 18.2759 13.53 17.8699 12.564C17.4779 11.584 17.2819 10.597 17.2819 9.603C17.2819 7.307 18.1499 5.529 19.8859 4.269H23.2879C24.2259 4.955 24.8629 5.683 25.1989 6.453C25.5349 7.223 25.7029 8 25.7029 8.784C25.7029 9.568 25.6399 10.24 25.5139 10.8H20.2849C20.3269 11.122 20.4459 11.493 20.6419 11.913C20.8519 12.319 21.0759 12.613 21.3139 12.795H25.2829ZM31.963 6.474H30.388C30.178 6.726 30.003 7.076 29.863 7.524C29.737 7.972 29.674 8.406 29.674 8.826H32.677C32.705 8.406 32.649 7.972 32.509 7.524C32.369 7.062 32.187 6.712 31.963 6.474ZM34.819 12.795V15H29.485C28.505 14.342 27.812 13.53 27.406 12.564C27.014 11.584 26.818 10.597 26.818 9.603C26.818 7.307 27.686 5.529 29.422 4.269H32.824C33.762 4.955 34.399 5.683 34.735 6.453C35.071 7.223 35.239 8 35.239 8.784C35.239 9.568 35.176 10.24 35.05 10.8H29.821C29.863 11.122 29.982 11.493 30.178 11.913C30.388 12.319 30.612 12.613 30.85 12.795H34.819ZM41.3101 4.269H43.5361C44.1521 5.053 44.5721 5.837 44.7961 6.621C45.0201 7.405 45.1321 8.385 45.1321 9.561V15H42.3391V9.351C42.3391 8.021 42.1571 7.062 41.7931 6.474H39.4411V15H36.6481V4.269H38.8321L39.2101 5.025C39.5181 4.745 39.8051 4.549 40.0711 4.437C40.3511 4.325 40.7641 4.269 41.3101 4.269ZM46.966 15V0.299999H54.631V2.82H49.843V6.495H54.001V8.931H49.843V15H46.966Z" fill="#00FF7F"/>
</svg>
